<svg xmlns="http://www.w3.org/2000/svg" width="160" height="45" viewBox="0 0 160 45" fill="none"><path d="M46.0038 27.988L41.9307 13.3599H45.0491L47.807 25.4392L50.6072 13.3599H53.4075L56.2501 25.4392L58.9867 13.3599H61.9779L57.9048 27.988H54.6167L52.665 20.009L52.0073 16.5515H51.9649L51.3073 20.009L49.3768 27.988H46.0038Z" fill="#004643"></path><path d="M67.0582 16.6845C68.133 16.6845 69.0735 16.9135 69.8797 17.3716C70.6999 17.8296 71.3364 18.4871 71.7889 19.3441C72.2556 20.2011 72.489 21.2354 72.489 22.4471C72.489 23.6439 72.2556 24.6782 71.7889 25.55C71.3364 26.407 70.6999 27.0645 69.8797 27.5226C69.0735 27.9806 68.133 28.2097 67.0582 28.2097C65.9975 28.2097 65.057 27.9806 64.2367 27.5226C63.4164 27.0645 62.773 26.407 62.3062 25.55C61.8537 24.6782 61.6274 23.6439 61.6274 22.4471C61.6274 21.2354 61.8537 20.2011 62.3062 19.3441C62.773 18.4871 63.4164 17.8296 64.2367 17.3716C65.057 16.9135 65.9975 16.6845 67.0582 16.6845ZM67.0582 18.9452C66.5208 18.9452 66.0611 19.0782 65.6793 19.3441C65.3116 19.5953 65.0287 19.9795 64.8307 20.4967C64.6327 21.0138 64.5337 21.6639 64.5337 22.4471C64.5337 23.2302 64.6327 23.8803 64.8307 24.3975C65.0287 24.9146 65.3116 25.3062 65.6793 25.5722C66.0611 25.8234 66.5208 25.9489 67.0582 25.9489C67.5815 25.9489 68.027 25.8234 68.3947 25.5722C68.7765 25.3062 69.0665 24.9146 69.2645 24.3975C69.4625 23.8803 69.5614 23.2302 69.5614 22.4471C69.5614 21.6639 69.4625 21.0138 69.2645 20.4967C69.0665 19.9795 68.7765 19.5953 68.3947 19.3441C68.027 19.0782 67.5815 18.9452 67.0582 18.9452Z" fill="#004643"></path><path d="M74.1783 27.988V16.9061H76.7028L76.8937 19.0782C77.1766 18.3098 77.5867 17.7188 78.1241 17.3051C78.6757 16.8913 79.3616 16.6845 80.1819 16.6845C80.4223 16.6845 80.6415 16.7066 80.8395 16.751C81.0375 16.7953 81.2002 16.8544 81.3274 16.9283L80.988 19.4771C80.8466 19.418 80.6698 19.3737 80.4577 19.3441C80.2597 19.3146 79.998 19.2998 79.6728 19.2998C79.2485 19.2998 78.8383 19.4106 78.4423 19.6323C78.0463 19.8391 77.7211 20.1642 77.4665 20.6075C77.2119 21.036 77.0846 21.5827 77.0846 22.2476V27.988H74.1783Z" fill="#004643"></path><path d="M93.1834 16.9061L88.283 22.2476L87.7102 22.5357L84.5281 26.1041L84.4857 22.8682L89.8741 16.9061H93.1834ZM85.2918 12.0522V27.988H82.3855V12.0522H85.2918ZM88.6861 20.4302L93.438 27.988H90.1498L86.6919 22.2033L88.6861 20.4302Z" fill="#004643"></path><path d="M109.933 13.3599V27.988H107.281V20.3637L107.43 16.0861H107.388L103.505 27.988H101.108L97.2473 16.0861H97.2048L97.3533 20.3637V27.988H94.7016V13.3599H98.9444L101.469 21.3389L102.36 24.6413H102.402L103.314 21.361L105.818 13.3599H109.933Z" fill="#004643"></path><path d="M117.268 16.6845C118.343 16.6845 119.284 16.9135 120.09 17.3716C120.91 17.8296 121.546 18.4871 121.999 19.3441C122.466 20.2011 122.699 21.2354 122.699 22.4471C122.699 23.6439 122.466 24.6782 121.999 25.55C121.546 26.407 120.91 27.0645 120.09 27.5226C119.284 27.9806 118.343 28.2097 117.268 28.2097C116.208 28.2097 115.267 27.9806 114.447 27.5226C113.627 27.0645 112.983 26.407 112.516 25.55C112.064 24.6782 111.838 23.6439 111.838 22.4471C111.838 21.2354 112.064 20.2011 112.516 19.3441C112.983 18.4871 113.627 17.8296 114.447 17.3716C115.267 16.9135 116.208 16.6845 117.268 16.6845ZM117.268 18.9452C116.731 18.9452 116.271 19.0782 115.889 19.3441C115.522 19.5953 115.239 19.9795 115.041 20.4967C114.843 21.0138 114.744 21.6639 114.744 22.4471C114.744 23.2302 114.843 23.8803 115.041 24.3975C115.239 24.9146 115.522 25.3062 115.889 25.5722C116.271 25.8234 116.731 25.9489 117.268 25.9489C117.792 25.9489 118.237 25.8234 118.605 25.5722C118.987 25.3062 119.277 24.9146 119.475 24.3975C119.673 23.8803 119.772 23.2302 119.772 22.4471C119.772 21.6639 119.673 21.0138 119.475 20.4967C119.277 19.9795 118.987 19.5953 118.605 19.3441C118.237 19.0782 117.792 18.9452 117.268 18.9452Z" fill="#004643"></path><path d="M128.04 13.5151V24.3753C128.04 24.9072 128.167 25.2988 128.422 25.55C128.69 25.7864 129.051 25.9046 129.504 25.9046C129.857 25.9046 130.168 25.8529 130.437 25.7495C130.706 25.6313 130.946 25.4761 131.158 25.284L131.625 27.3009C131.286 27.5817 130.861 27.8033 130.352 27.9659C129.843 28.1284 129.306 28.2097 128.74 28.2097C128.033 28.2097 127.403 28.0988 126.852 27.8772C126.314 27.6556 125.89 27.3009 125.579 26.8133C125.282 26.3257 125.133 25.6756 125.133 24.8629V14.3573L128.04 13.5151ZM131.434 16.9061V19.1668H123.182V16.9061H131.434Z" fill="#004643"></path><path d="M134.122 15.3103C133.513 15.3103 133.061 15.1773 132.764 14.9114C132.467 14.6306 132.318 14.2243 132.318 13.6924C132.318 13.1457 132.467 12.7393 132.764 12.4734C133.061 12.1926 133.513 12.0522 134.122 12.0522C134.73 12.0522 135.182 12.1926 135.479 12.4734C135.776 12.7393 135.925 13.1457 135.925 13.6924C135.925 14.2243 135.776 14.6306 135.479 14.9114C135.182 15.1773 134.73 15.3103 134.122 15.3103ZM135.564 16.9061V27.988H132.658V16.9061H135.564Z" fill="#004643"></path><path d="M142.739 16.6845C143.814 16.6845 144.755 16.9135 145.561 17.3716C146.381 17.8296 147.017 18.4871 147.47 19.3441C147.937 20.2011 148.17 21.2354 148.17 22.4471C148.17 23.6439 147.937 24.6782 147.47 25.55C147.017 26.407 146.381 27.0645 145.561 27.5226C144.755 27.9806 143.814 28.2097 142.739 28.2097C141.679 28.2097 140.738 27.9806 139.918 27.5226C139.098 27.0645 138.454 26.407 137.987 25.55C137.535 24.6782 137.308 23.6439 137.308 22.4471C137.308 21.2354 137.535 20.2011 137.987 19.3441C138.454 18.4871 139.098 17.8296 139.918 17.3716C140.738 16.9135 141.679 16.6845 142.739 16.6845ZM142.739 18.9452C142.202 18.9452 141.742 19.0782 141.36 19.3441C140.993 19.5953 140.71 19.9795 140.512 20.4967C140.314 21.0138 140.215 21.6639 140.215 22.4471C140.215 23.2302 140.314 23.8803 140.512 24.3975C140.71 24.9146 140.993 25.3062 141.36 25.5722C141.742 25.8234 142.202 25.9489 142.739 25.9489C143.263 25.9489 143.708 25.8234 144.076 25.5722C144.458 25.3062 144.748 24.9146 144.946 24.3975C145.144 23.8803 145.243 23.2302 145.243 22.4471C145.243 21.6639 145.144 21.0138 144.946 20.4967C144.748 19.9795 144.458 19.5953 144.076 19.3441C143.708 19.0782 143.263 18.9452 142.739 18.9452Z" fill="#004643"></path><path d="M149.859 27.988V16.9061H152.469L152.638 20.2307L152.278 19.8761C152.447 19.152 152.716 18.5536 153.084 18.0808C153.452 17.608 153.897 17.2607 154.42 17.0391C154.958 16.8027 155.545 16.6845 156.181 16.6845C156.917 16.6845 157.567 16.8322 158.133 17.1278C158.713 17.4233 159.165 17.8739 159.491 18.4797C159.83 19.0708 160 19.817 160 20.7183V27.988H157.093V21.5827C157.093 20.637 156.917 19.9869 156.563 19.6323C156.209 19.2629 155.75 19.0782 155.184 19.0782C154.788 19.0782 154.399 19.1816 154.017 19.3885C153.65 19.5805 153.346 19.8982 153.105 20.3415C152.879 20.7848 152.766 21.3758 152.766 22.1146V27.988H149.859Z" fill="#004643"></path><path d="M17.2945 14.6939C17.3038 16.018 15.9487 16.8615 14.8621 16.208L9.47151 12.966C8.39059 12.3159 8.38607 10.6702 9.46338 9.99964L14.8078 6.67291C15.8851 6.00232 17.2391 6.80803 17.2483 8.1252L17.2945 14.6939Z" fill="#004643"></path><path d="M15.2813 22.3759C16.3634 21.7141 17.7245 22.5475 17.7241 23.8716L17.7222 31.6928C17.7219 33.0099 16.3734 33.8256 15.2916 33.1632L8.90168 29.2508C7.81982 28.5884 7.813 26.9429 8.8894 26.2847L15.2813 22.3759Z" fill="#004643"></path><path d="M22.0196 20.6863C20.8795 20.0062 20.9338 18.2703 22.1141 17.6718L26.5272 15.4342C27.632 14.8739 28.9119 15.7427 28.8717 17.0256L28.7219 21.8062C28.6817 23.0891 27.3503 23.866 26.283 23.2293L22.0196 20.6863Z" fill="#004643"></path><path d="M15.4002 17.9994C16.4603 18.661 16.4603 20.2653 15.4002 20.9269L2.46816 28.9964C1.38044 29.6752 -0.000439481 28.8564 -0.000439426 27.5327L-0.000438761 11.3936C-0.000438706 10.0699 1.38045 9.25112 2.46817 9.92985L15.4002 17.9994Z" fill="#004643"></path><path d="M19.0218 23.7015C19.0125 22.3775 20.3676 21.534 21.4541 22.1875L36.7808 31.4052C37.8617 32.0553 37.8662 33.701 36.7889 34.3716L21.5935 43.8302C20.5162 44.5008 19.1622 43.6951 19.153 42.3779L19.0218 23.7015Z" fill="#004643"></path><path d="M21.0539 16.7437C19.972 17.406 18.6106 16.5732 18.6104 15.2491L18.6085 2.96421C18.6083 1.64713 19.9564 0.830793 21.0386 1.49271L31.0778 7.63344C32.1599 8.29536 32.1674 9.94085 31.0913 10.5996L21.0539 16.7437Z" fill="#004643"></path></svg>