<svg class="js-b-header-logo" fill="none" height="35" viewBox="0 0 135 25" width="135" xmlns="http://www.w3.org/2000/svg"><g clip-path="url(#clip0_4704_601)"><path d="M32.0206 6.58682V11.1196H30.0678C28.6734 11.1196 27.6507 11.5442 26.9998 12.3949C26.3489 13.2442 26.0234 14.4019 26.0234 15.8653V24.7884H21.1074V6.58682H25.5699L26.0234 9.31311C26.5572 8.4168 27.2204 7.73765 28.0102 7.27704C28.8 6.81643 29.8581 6.58682 31.1831 6.58682H32.0193H32.0206Z" fill="white"></path><path d="M33.3615 10.7821C34.1159 9.37812 35.174 8.29231 36.5344 7.52463C37.8935 6.75834 39.4677 6.37381 41.2584 6.37381C43.0491 6.37381 44.6682 6.73344 46.0518 7.45409C47.434 8.17474 48.5152 9.18863 49.2942 10.4999C50.0731 11.8098 50.4735 13.3507 50.4966 15.1212C50.4966 15.7588 50.4503 16.3246 50.3577 16.8211H37.3542V16.9622C37.47 18.2846 37.888 19.3233 38.6098 20.0786C39.3301 20.8338 40.3174 21.2114 41.573 21.2114C42.5725 21.2114 43.4032 20.9929 44.065 20.5558C44.7268 20.1187 45.1626 19.4755 45.3723 18.6262H50.2174C50.0309 19.8296 49.5774 20.9168 48.8584 21.8837C48.138 22.8519 47.1848 23.6127 46.0001 24.1673C44.8153 24.722 43.4549 25 41.9216 25C39.9225 25 38.1971 24.6224 36.7441 23.8672C35.2911 23.1119 34.1758 22.0317 33.3969 20.6277C32.618 19.2238 32.2285 17.5888 32.2285 15.7229C32.2285 13.8569 32.6057 12.1874 33.3615 10.7835V10.7821ZM45.5806 13.5623C45.4172 12.453 44.9706 11.5968 44.2379 10.9951C43.5053 10.3934 42.582 10.0919 41.4667 10.0919C40.3515 10.0919 39.4976 10.4045 38.765 11.0297C38.0324 11.6549 37.5966 12.4986 37.4577 13.5609H45.5806V13.5623Z" fill="white"></path><path d="M50.252 6.58682H55.4457L59.0367 19.405L62.418 6.58682H66.8451L70.1215 19.4409L73.7819 6.58682H78.8027L72.9117 24.787H67.6826L64.5451 13.8099L61.3381 24.787H56.1089L50.252 6.58682Z" fill="white"></path><path d="M97.2101 6.5868V24.787H92.8524L92.4344 22.2377C91.0168 24.0553 89.1579 24.964 86.8566 24.964C85.2755 24.964 83.858 24.5864 82.6038 23.8312C81.3482 23.0759 80.3664 21.9901 79.6583 20.5737C78.9488 19.1573 78.5947 17.5169 78.5947 15.6523C78.5947 13.7877 78.9488 12.1818 79.6583 10.7655C80.3664 9.34905 81.355 8.2577 82.6215 7.49003C83.8879 6.72373 85.311 6.3392 86.892 6.3392C88.0999 6.3392 89.1688 6.57573 90.0989 7.0474C91.0276 7.52046 91.7957 8.16918 92.4003 8.99495L92.8878 6.5868H97.2101ZM91.1788 19.4935C91.9686 18.5377 92.3635 17.2803 92.3635 15.7228C92.3635 14.1654 91.9686 12.8665 91.1788 11.8983C90.389 10.9301 89.3309 10.4459 88.0059 10.4459C86.6809 10.4459 85.6174 10.9301 84.8166 11.8983C84.0146 12.8665 83.6142 14.1418 83.6142 15.7228C83.6142 17.3038 84.0146 18.5377 84.8166 19.4935C85.6187 20.4492 86.6823 20.9278 88.0059 20.9278C89.3295 20.9278 90.3876 20.4492 91.1788 19.4935Z" fill="white"></path><path d="M98.1855 6.58682H103.45L107.772 19.6885L112.025 6.58682H117.185L110.736 24.787H104.635L98.1855 6.58682Z" fill="white"></path><path d="M117.864 10.7821C118.619 9.37812 119.677 8.29231 121.037 7.52463C122.396 6.75834 123.971 6.37381 125.761 6.37381C127.552 6.37381 129.171 6.73344 130.555 7.45409C131.937 8.17474 133.018 9.18863 133.797 10.4999C134.576 11.8098 134.976 13.3507 135 15.1212C135 15.7588 134.953 16.3246 134.861 16.8211H121.857V16.9622C121.973 18.2846 122.391 19.3233 123.113 20.0786C123.833 20.8338 124.82 21.2114 126.076 21.2114C127.075 21.2114 127.906 20.9929 128.568 20.5558C129.23 20.1187 129.665 19.4755 129.875 18.6262H134.72C134.534 19.8296 134.08 20.9168 133.361 21.8837C132.641 22.8519 131.688 23.6127 130.503 24.1673C129.318 24.722 127.958 25 126.424 25C124.425 25 122.7 24.6224 121.247 23.8672C119.794 23.1119 118.679 22.0317 117.9 20.6277C117.121 19.2238 116.731 17.5888 116.731 15.7229C116.731 13.8569 117.109 12.1874 117.864 10.7835V10.7821ZM130.084 13.5623C129.92 12.453 129.473 11.5968 128.741 10.9951C128.008 10.3934 127.085 10.0919 125.97 10.0919C124.854 10.0919 124.001 10.4045 123.268 11.0297C122.535 11.6549 122.1 12.4986 121.961 13.5609H130.084V13.5623Z" fill="white"></path><path d="M0.845657 19.8586C1.40943 19.2984 2.11482 19.0163 2.96184 19.0163C3.80886 19.0163 4.5483 19.2971 5.11343 19.8586C5.6772 20.4202 5.95909 21.1422 5.95909 22.0261C5.95909 22.91 5.6772 23.596 5.11343 24.1576C4.54966 24.7192 3.83201 25 2.96184 25C2.09167 25 1.40943 24.7192 0.845657 24.1576C0.281886 23.5974 0 22.8865 0 22.0261C0 21.1658 0.281886 20.4202 0.845657 19.8586Z" fill="white"></path><path d="M5.59441 12.316V4.42625V0H0.365234V16.7423H5.59441V12.316Z" fill="white"></path><path d="M18.1628 3.8951C17.4302 2.64468 16.3966 1.68197 15.0607 1.00974C13.7235 0.336118 12.1847 0 10.4416 0H8.03809V4.42625H9.95409C11.1851 4.42625 12.1615 4.76928 12.8819 5.45258C13.6023 6.13727 13.9631 7.20787 13.9631 8.38774C13.9631 9.56761 13.6023 10.6036 12.8819 11.2883C12.1615 11.973 11.1851 12.3147 9.95409 12.3147H8.03809V16.7409H10.4416C12.1847 16.7409 13.7235 16.4048 15.0607 15.7312C16.3966 15.0589 17.4315 14.1017 18.1628 12.8624C18.8941 11.623 19.2604 10.0393 19.2604 8.38636C19.2604 6.73343 18.8941 5.14413 18.1628 3.89233V3.8951Z" fill="white"></path></g><defs><clipPath id="clip0_4704_601"><rect fill="white" height="25" width="135"></rect></clipPath></defs></svg>